<?xml version="1.0" standalone="no"?>
<!DOCTYPE svg PUBLIC "-//W3C//DTD SVG 20010904//EN"
 "http://www.w3.org/TR/2001/REC-SVG-20010904/DTD/svg10.dtd">
<svg version="1.0" xmlns="http://www.w3.org/2000/svg"
 width="1024.000000pt" height="1024.000000pt" viewBox="0 0 1024.000000 1024.000000"
 preserveAspectRatio="xMidYMid meet">
<metadata>
Created by potrace 1.14, written by Peter Selinger 2001-2017
</metadata>
<g transform="translate(0.000000,1024.000000) scale(0.100000,-0.100000)"
fill="#000000" stroke="none">
<path d="M0 5120 l0 -5120 5120 0 5120 0 0 5120 0 5120 -5120 0 -5120 0 0
-5120z m10220 0 l0 -5100 -5100 0 -5100 0 0 5100 0 5100 5100 0 5100 0 0
-5100z"/>
<path d="M5125 10182 c-2777 -1 -5053 -6 -5057 -10 -4 -4 -8 -2281 -8 -5060
l0 -5052 5060 0 5060 0 0 5062 c0 2784 -1 5062 -2 5062 -2 1 -2275 0 -5053 -2z
m1215 -942 l0 -140 139 0 138 0 8 -570 7 -570 139 0 139 0 0 -145 0 -145 145
0 145 0 0 -145 0 -145 145 0 145 0 0 -140 0 -140 140 0 140 0 0 -145 0 -145
145 0 145 0 0 -140 0 -140 140 0 140 0 0 -1295 0 -1295 -140 0 -140 0 0 -140
0 -140 -145 0 -145 0 0 -145 0 -145 -140 0 -140 0 0 -140 0 -140 -145 0 -145
0 0 -145 0 -145 -145 0 -145 0 0 -145 0 -145 -138 0 -139 0 -6 -422 c-4 -232
-7 -551 -7 -710 l0 -288 -140 0 -140 0 0 -145 0 -145 -145 0 -145 0 0 145 0
145 -139 0 -139 0 -7 570 -7 570 -857 2 -856 3 -3 137 -3 138 -282 2 -282 3
-3 143 -3 142 -139 0 -140 0 0 145 0 145 -1000 0 -1000 0 0 140 0 140 -145 0
-145 0 0 145 0 144 143 3 142 3 3 143 3 142 569 0 570 0 0 140 0 140 -145 0
-145 0 0 1005 0 1005 145 0 145 0 0 285 0 285 140 0 139 0 3 143 3 142 143 3
142 3 0 139 0 140 145 0 145 0 0 145 0 145 140 0 139 0 3 143 3 142 282 3 282
2 3 138 3 137 858 3 857 2 0 213 c0 116 3 310 7 430 l6 217 139 0 138 0 0 140
0 140 145 0 145 0 0 -140z"/>
<path d="M4050 7810 l0 -140 140 0 140 0 0 140 0 140 -140 0 -140 0 0 -140z"/>
<path d="M4630 7810 l0 -140 140 0 140 0 0 -145 0 -145 425 0 425 0 0 285 0
285 -565 0 -565 0 0 -140z"/>
<path d="M3480 7520 l0 -140 -140 0 -139 0 -3 -142 -3 -143 -142 -3 -143 -3 0
-144 0 -145 -145 0 -145 0 0 -425 0 -425 -140 0 -140 0 0 -715 0 -715 140 0
140 0 0 -285 0 -285 425 0 425 0 2 1573 3 1572 143 3 142 3 0 139 0 139 143 3
142 3 3 138 3 137 -286 0 -285 0 0 -140z"/>
<path d="M6630 6375 l0 -1285 -145 0 -145 0 0 -145 0 -145 -285 0 -285 0 0
-140 0 -140 -145 0 -145 0 0 -145 0 -145 -140 0 -140 0 0 -140 0 -140 570 0
570 0 0 -140 0 -139 143 -3 142 -3 3 -427 2 -428 135 0 134 0 3 138 3 137 143
3 142 3 0 144 0 145 145 0 145 0 0 145 0 145 140 0 140 0 0 140 0 140 145 0
145 0 0 1285 0 1285 -145 0 -145 0 0 140 0 140 -140 0 -140 0 0 145 0 145
-145 0 -145 0 0 145 0 144 -142 3 -143 3 -3 138 -3 137 -134 0 -135 0 0 -1285z"/>
<path d="M5200 6380 l0 -140 140 0 140 0 0 -145 0 -145 140 0 140 0 0 285 0
285 -280 0 -280 0 0 -140z"/>
<path d="M3480 2950 l0 -140 285 0 286 0 -3 138 -3 137 -282 3 -283 2 0 -140z"/>
<path d="M4910 2945 l0 -145 -140 0 -140 0 0 -140 0 -140 565 0 565 0 0 285 0
285 -425 0 -425 0 0 -145z"/>
<path d="M4050 2660 l0 -140 140 0 140 0 0 140 0 140 -140 0 -140 0 0 -140z"/>
</g>
</svg>
