<?xml version="1.0" encoding="UTF-8" standalone="no"?>
<svg
   xmlns:serif="http://www.serif.com/"
   xmlns:dc="http://purl.org/dc/elements/1.1/"
   xmlns:cc="http://creativecommons.org/ns#"
   xmlns:rdf="http://www.w3.org/1999/02/22-rdf-syntax-ns#"
   xmlns:svg="http://www.w3.org/2000/svg"
   xmlns="http://www.w3.org/2000/svg"
   xmlns:sodipodi="http://sodipodi.sourceforge.net/DTD/sodipodi-0.dtd"
   xmlns:inkscape="http://www.inkscape.org/namespaces/inkscape"
   width="160"
   height="100"
   viewBox="0 0 160 100"
   version="1.1"
   xml:space="preserve"
   style="clip-rule:evenodd;fill-rule:evenodd;stroke-linejoin:round;stroke-miterlimit:2"
   id="svg11"
   sodipodi:docname="artion_white.svg"
   inkscape:version="1.0.1 (1.0.1+r74)"><metadata
   id="metadata17"><rdf:RDF><cc:Work
       rdf:about=""><dc:format>image/svg+xml</dc:format><dc:type
         rdf:resource="http://purl.org/dc/dcmitype/StillImage" /><dc:title></dc:title></cc:Work></rdf:RDF></metadata><defs
   id="defs15" /><sodipodi:namedview
   pagecolor="#ffffff"
   bordercolor="#666666"
   borderopacity="1"
   objecttolerance="10"
   gridtolerance="10"
   guidetolerance="10"
   inkscape:pageopacity="0"
   inkscape:pageshadow="2"
   inkscape:window-width="2560"
   inkscape:window-height="1391"
   id="namedview13"
   showgrid="false"
   inkscape:zoom="3.6475"
   inkscape:cx="110.62371"
   inkscape:cy="50"
   inkscape:window-x="1920"
   inkscape:window-y="0"
   inkscape:window-maximized="1"
   inkscape:current-layer="svg11" />
    <g
   transform="translate(-2500.02,-5070)"
   id="g9">
        <g
   transform="translate(2200,4620)"
   id="g7">
            <g
   id="Logo-white"
   serif:id="Logo white">
                <g
   transform="matrix(0.469991,0,0,0.415225,72.125,342.815)"
   id="g4">
                    <path
   d="m 649.195,259.973 -159.8,110 c -0.088,0.061 -0.175,0.123 -0.261,0.186 l -0.128,0.096 -0.127,0.097 -0.124,0.099 -0.123,0.101 -0.122,0.103 -0.119,0.104 -0.118,0.106 -0.116,0.108 -0.114,0.109 -0.112,0.111 -0.111,0.113 -0.109,0.113 -0.107,0.116 -0.105,0.117 -0.103,0.118 -0.101,0.12 -0.1,0.121 -0.097,0.123 -0.096,0.124 -0.093,0.126 -0.092,0.126 -0.09,0.128 -0.087,0.13 -0.086,0.13 -0.084,0.132 -0.082,0.133 -0.08,0.134 -0.077,0.136 -0.076,0.136 -0.074,0.138 -0.071,0.139 -0.07,0.139 -0.067,0.141 -0.066,0.142 -0.063,0.143 -0.061,0.143 -0.059,0.145 -0.056,0.146 -0.055,0.146 -0.052,0.148 -0.051,0.148 -0.048,0.149 -0.045,0.15 -0.044,0.151 -0.041,0.151 -0.039,0.152 -0.037,0.153 -0.035,0.153 -0.032,0.155 -0.03,0.154 -0.027,0.156 -0.026,0.156 -0.022,0.156 -0.021,0.157 -0.018,0.158 -0.016,0.158 -0.013,0.159 -0.011,0.159 -0.009,0.159 -0.006,0.16 -0.004,0.16 -0.001,0.161 0.001,0.16 0.004,0.16 0.006,0.16 0.009,0.16 0.011,0.159 0.013,0.158 0.016,0.158 0.018,0.158 0.021,0.157 0.022,0.156 0.026,0.156 0.027,0.156 0.03,0.155 0.032,0.154 0.035,0.153 0.037,0.153 0.039,0.152 0.041,0.152 0.044,0.15 0.045,0.15 0.048,0.149 0.051,0.148 0.052,0.148 0.055,0.146 0.056,0.146 0.059,0.145 0.061,0.144 0.063,0.142 0.066,0.142 0.067,0.141 0.07,0.14 0.071,0.138 0.074,0.138 0.076,0.136 0.077,0.136 0.08,0.134 0.082,0.133 0.084,0.132 0.086,0.13 0.087,0.13 0.09,0.128 0.092,0.127 0.093,0.125 0.096,0.124 0.097,0.123 0.1,0.121 0.101,0.12 0.103,0.118 0.105,0.117 0.107,0.116 0.109,0.114 0.111,0.112 0.112,0.111 0.114,0.109 0.116,0.108 0.118,0.106 0.119,0.104 0.122,0.103 0.123,0.101 0.124,0.099 0.127,0.097 0.128,0.096 0.13,0.094 0.131,0.092 c 0,0 159.8,110 159.8,110 3.557,2.448 8.256,2.448 11.813,0 l 159.799,-110 0.131,-0.092 0.13,-0.094 0.129,-0.096 0.126,-0.097 0.125,-0.099 0.123,-0.101 0.121,-0.103 0.119,-0.104 0.118,-0.106 0.116,-0.108 0.114,-0.109 0.113,-0.111 0.11,-0.112 0.109,-0.114 0.107,-0.116 0.105,-0.117 0.103,-0.118 0.101,-0.12 0.1,-0.121 0.097,-0.123 0.096,-0.124 0.093,-0.125 0.092,-0.127 0.09,-0.128 0.088,-0.13 0.086,-0.13 0.083,-0.132 0.082,-0.133 0.08,-0.134 0.078,-0.136 0.075,-0.136 0.074,-0.138 0.072,-0.138 0.069,-0.14 0.068,-0.141 0.065,-0.142 0.063,-0.142 0.061,-0.144 0.059,-0.145 0.057,-0.146 0.054,-0.146 0.053,-0.148 0.05,-0.148 0.048,-0.149 0.046,-0.15 0.043,-0.15 0.042,-0.152 0.039,-0.152 0.036,-0.153 0.035,-0.153 0.032,-0.154 0.03,-0.155 0.028,-0.156 0.025,-0.156 0.023,-0.156 0.02,-0.157 0.018,-0.158 0.016,-0.158 0.014,-0.158 0.011,-0.159 0.008,-0.16 0.006,-0.16 0.004,-0.16 10e-4,-0.16 -10e-4,-0.161 -0.004,-0.16 -0.006,-0.16 -0.008,-0.159 -0.011,-0.159 -0.014,-0.159 -0.016,-0.158 c 0,0 -0.009,-0.078 -0.009,-0.078 -0.018,-0.166 -0.042,-0.331 -0.069,-0.495 l -0.008,-0.054 -0.028,-0.156 -0.03,-0.154 -0.032,-0.155 -0.035,-0.153 -0.036,-0.153 -0.039,-0.152 -0.042,-0.151 -0.043,-0.151 -0.046,-0.15 -0.048,-0.149 -0.05,-0.148 -0.053,-0.148 -0.054,-0.146 -0.057,-0.146 -0.059,-0.145 -0.061,-0.143 -0.063,-0.143 -0.065,-0.142 -0.068,-0.141 -0.069,-0.139 -0.072,-0.139 -0.074,-0.138 -0.075,-0.136 -0.078,-0.136 -0.08,-0.134 -0.082,-0.133 -0.083,-0.132 -0.086,-0.13 -0.088,-0.13 -0.09,-0.128 -0.092,-0.126 -0.093,-0.126 -0.096,-0.124 -0.097,-0.123 -0.1,-0.121 -0.101,-0.12 -0.103,-0.118 -0.105,-0.117 -0.107,-0.116 -0.109,-0.113 -0.11,-0.113 -0.113,-0.111 -0.114,-0.109 -0.116,-0.108 -0.118,-0.106 -0.119,-0.104 -0.121,-0.103 -0.123,-0.101 -0.125,-0.099 -0.126,-0.097 -0.129,-0.096 -0.13,-0.094 -0.131,-0.092 -159.799,-110 c -3.557,-2.448 -8.256,-2.448 -11.813,0 z m 67.435,173.581 -61.529,-42.354 -61.528,42.354 61.528,42.354 z m 18.371,-97.354 61.528,42.354 -61.528,42.354 c 0,0 -61.529,-42.354 -61.529,-42.354 z m -159.8,0 -7.882,5.426 -53.646,36.928 61.528,42.354 61.529,-42.354 z"
   style="fill:#ffffff"
   id="path2" />
                </g>
            </g>
        </g>
    </g>
</svg>
